HIERARCHY
ROOT Hips
{
	OFFSET 0.000000 0.000000 0.000000 
	CHANNELS 6 Xposition Yposition Zposition Zrotation Yrotation Xrotation
	JOINT LeftUpLeg
	{
		OFFSET 1.363060 -1.794630 0.839290 
		CHANNELS 3 Zrotation Yrotation Xrotation
		JOINT LeftLeg
		{
			OFFSET 2.448110 -6.726130 0.000000 
			CHANNELS 3 Zrotation Yrotation Xrotation
			JOINT LeftFoot
			{
				OFFSET 2.562200 -7.039590 0.000000 
				CHANNELS 3 Zrotation Yrotation Xrotation
				JOINT LeftToeBase
				{
					OFFSET 0.157640 -0.433110 2.322550 
					CHANNELS 3 Zrotation Yrotation Xrotation
					End Site
					{
						OFFSET 0.000000 0.000000 0.000000 
					}
				}
			}
		}
	}
	JOINT RightUpLeg
	{
		OFFSET -1.305520 -1.794630 0.839290 
		CHANNELS 3 Zrotation Yrotation Xrotation
		JOINT RightLeg
		{
			OFFSET -2.542530 -6.985550 0.000000 
			CHANNELS 3 Zrotation Yrotation Xrotation
			JOINT RightFoot
			{
				OFFSET -2.568260 -7.056230 0.000000 
				CHANNELS 3 Zrotation Yrotation Xrotation
				JOINT RightToeBase
				{
					OFFSET -0.164730 -0.452590 2.363150 
					CHANNELS 3 Zrotation Yrotation Xrotation
					End Site
					{
						OFFSET 0.000000 0.000000 0.000000 
					}
				}
			}
		}
	}
	JOINT Spine
	{
		OFFSET 0.028270 2.035590 -0.193380 
		CHANNELS 3 Zrotation Yrotation Xrotation
		JOINT Spine1
		{
			OFFSET 0.056720 2.048850 -0.042750 
			CHANNELS 3 Zrotation Yrotation Xrotation
			JOINT Neck1
			{
				OFFSET -0.054170 1.746240 0.172020 
				CHANNELS 3 Zrotation Yrotation Xrotation
				JOINT Head
				{
					OFFSET 0.104070 1.761360 -0.123970 
					CHANNELS 3 Zrotation Yrotation Xrotation
					End Site
					{
						OFFSET 0.000000 0.000000 0.000000 
					}
				}
			}
			JOINT LeftArm
			{
				OFFSET 3.362410 1.200890 -0.311210 
				CHANNELS 3 Zrotation Yrotation Xrotation
				JOINT LeftForeArm
				{
					OFFSET 4.983000 -0.000000 -0.000000 
					CHANNELS 3 Zrotation Yrotation Xrotation
					JOINT LeftHand
					{
						OFFSET 3.483560 -0.000000 -0.000000 
						CHANNELS 3 Zrotation Yrotation Xrotation
						JOINT LeftHandIndex1
						{
							OFFSET 0.715260 -0.000000 -0.000000 
							CHANNELS 3 Zrotation Yrotation Xrotation
							End Site
							{
								OFFSET 0.000000 0.000000 0.000000 
							}
						}
					}
				}
			}
			JOINT RightArm
			{
				OFFSET -3.136600 1.374050 -0.404650 
				CHANNELS 3 Zrotation Yrotation Xrotation
				JOINT RightForeArm
				{
					OFFSET -5.241900 -0.000000 -0.000000 
					CHANNELS 3 Zrotation Yrotation Xrotation
					JOINT RightHand
					{
						OFFSET -3.444170 -0.000000 -0.000000 
						CHANNELS 3 Zrotation Yrotation Xrotation
						JOINT RightHandIndex1
						{
							OFFSET -0.622530 -0.000000 -0.000000 
							CHANNELS 3 Zrotation Yrotation Xrotation
							End Site
							{
								OFFSET 0.000000 0.000000 0.000000 
							}
						}
					}
				}
			}
		}
	}
}
MOTION
Frames: 10
Frame Time: 0.041667
7.084961 18.455615 9.044287 -1.529500 -41.252001 17.832075 -3.945105 6.455714 -54.080602 26.989298 19.046373 110.814246 3.393058 -8.770566 12.145819 1.594800 -7.965600 -22.609700 10.651269 5.300885 -39.609598 -4.560857 -13.910495 37.037690 11.472967 -25.729607 8.054535 -0.441800 -4.265100 11.823600 1.505580 -6.189504 -2.307819 -7.567150 -3.473623 1.840545 0.967545 4.604075 -2.180538 -0.942200 2.143100 -6.395400 -49.893816 -53.752387 50.350821 65.377602 -49.252158 -43.603411 -1.043309 -3.327489 -44.356140 -7.125000 0.000000 0.000000 80.875227 -2.370458 51.157236 -75.456661 58.723051 -50.279929 1.901541 -0.974552 4.154547 7.125000 0.000000 0.000000 
7.056185 18.396329 9.065089 -1.255514 -41.144995 17.078021 -3.747147 6.423691 -56.084747 27.467897 18.889723 112.423283 3.445483 -9.049571 11.418441 1.583400 -7.938200 -22.526600 10.649663 5.657955 -39.469598 -4.826076 -14.135681 38.101467 11.545677 -25.669920 6.871547 -0.434600 -4.230300 11.725400 1.495249 -6.194739 -2.277973 -7.438168 -3.528189 1.632924 1.018002 4.459775 -2.329707 -0.901200 2.072000 -6.481000 -47.475061 -54.200014 48.114130 64.891625 -48.891262 -43.327804 -1.031581 -3.450814 -44.945788 -7.125000 0.000000 0.000000 80.974873 -1.364965 50.835979 -77.658529 58.767171 -52.184790 1.893553 -0.949535 3.976826 7.125000 0.000000 0.000000 
7.027755 18.334038 9.086238 -0.983404 -41.060319 16.329967 -3.582881 6.329062 -58.128904 27.870421 18.755232 113.771611 3.475236 -9.223957 10.789949 1.569100 -7.904000 -22.422900 10.650610 6.019556 -39.337568 -5.096370 -14.364283 39.196298 11.580452 -25.569550 5.691146 -0.424800 -4.182900 11.591800 1.483831 -6.194143 -2.249077 -7.297238 -3.581881 1.411107 1.072876 4.323539 -2.486393 -0.859000 2.004000 -6.569300 -44.994806 -54.557327 45.717954 64.337428 -48.582121 -43.026516 -1.017513 -3.579341 -45.501418 -7.125000 0.000000 0.000000 81.033425 -0.319847 50.525170 -79.918376 58.770216 -54.163911 1.887434 -0.918829 3.776395 7.125000 0.000000 0.000000 
6.998979 18.268858 9.107964 -0.726164 -40.978159 15.575356 -3.440648 6.142487 -60.193554 28.196367 18.645014 114.858817 3.481062 -9.286630 10.255457 1.551400 -7.861500 -22.294100 10.655727 6.380987 -39.215470 -5.371996 -14.597848 40.320629 11.579458 -25.432363 4.513352 -0.413100 -4.125700 11.430600 1.453789 -6.209132 -2.252415 -7.064991 -3.642920 0.960107 1.140008 4.201465 -2.690807 -0.816200 1.939700 -6.656800 -42.340693 -54.778669 43.092288 63.717805 -48.273086 -42.698374 -1.004088 -3.716373 -46.029803 -7.125000 0.000000 0.000000 81.074109 0.814277 50.193150 -82.198557 58.695927 -56.198577 1.884357 -0.882634 3.556650 7.125000 0.000000 0.000000 
6.969972 18.200674 9.130269 -0.464060 -40.919986 14.840375 -3.310651 5.862840 -62.275929 28.451990 18.573563 115.689011 3.464649 -9.245477 9.810583 1.531100 -7.812300 -22.145500 10.666837 6.742491 -39.098788 -5.653485 -14.831459 41.473694 11.545227 -25.265203 3.339028 -0.400200 -4.061500 11.249700 1.441646 -6.200253 -2.230968 -6.895128 -3.692863 0.720016 1.201844 4.086321 -2.852462 -0.773900 1.879900 -6.740400 -39.705255 -55.003150 40.338443 63.012005 -48.079640 -42.342527 -0.983914 -3.858798 -46.538606 -7.125000 0.000000 0.000000 81.039013 1.953080 49.898957 -84.489446 58.610947 -58.262151 1.882030 -0.839168 3.324679 7.125000 0.000000 0.000000 
6.940386 18.129715 9.153382 -0.208806 -40.869586 14.114520 -3.178842 5.474999 -64.352989 28.637183 18.540722 116.262164 3.428063 -9.110820 9.450397 1.509600 -7.759600 -21.986300 10.685719 7.099792 -38.989798 -5.941372 -15.066674 42.652908 11.482243 -25.076069 2.169372 -0.386600 -3.992600 11.055900 1.429502 -6.187686 -2.211253 -6.715345 -3.738380 0.490499 1.263519 3.983023 -3.010818 -0.733200 1.824900 -6.818300 -36.957973 -55.199959 37.376572 62.230287 -47.940607 -41.960598 -0.959672 -4.008863 -47.038137 -7.125000 0.000000 0.000000 80.954747 3.144056 49.609781 -86.747386 58.484823 -60.325981 1.881096 -0.789331 3.084396 7.125000 0.000000 0.000000 
6.910223 18.055868 9.177651 0.039924 -40.825995 13.398187 -3.034956 4.979142 -66.405864 28.754352 18.549128 116.581465 3.373740 -8.895556 9.166557 1.489100 -7.709300 -21.834500 10.713097 7.450370 -38.888781 -6.236136 -15.302657 43.855958 11.394312 -24.872252 1.006374 -0.372700 -3.921400 10.855500 1.417200 -6.172391 -2.193134 -6.530405 -3.777945 0.282635 1.322018 3.892218 -3.164099 -0.696000 1.775000 -6.890400 -34.063866 -55.390466 34.181332 61.376301 -47.845142 -41.553359 -0.930834 -4.166447 -47.534375 -7.125000 0.000000 0.000000 80.821588 4.392867 49.322479 -88.939525 58.320987 -62.360048 1.881105 -0.733382 2.839214 7.125000 0.000000 0.000000 
6.879482 17.979362 9.203076 0.283476 -40.790126 12.691683 -2.871574 4.384029 -68.416797 28.804738 18.600257 116.647610 3.304847 -8.616099 8.951859 1.471300 -7.665100 -21.701300 10.748660 7.791813 -38.797394 -6.538293 -15.539138 45.080913 11.284980 -24.659974 -0.147803 -0.358800 -3.848300 10.650400 1.404483 -6.155069 -2.176487 -6.344900 -3.809947 0.106718 1.374378 3.813888 -3.311717 -0.663200 1.730400 -6.957700 -30.985081 -55.589673 30.728374 60.455675 -47.775542 -41.119782 -0.897310 -4.330852 -48.028937 -7.125000 0.000000 0.000000 80.640051 5.703904 49.035038 -91.035417 58.124447 -64.335117 1.881480 -0.671714 2.589456 7.125000 0.000000 0.000000 
6.848395 17.900083 9.230119 0.523790 -40.764114 11.996626 -2.684607 3.705338 -70.368935 28.790143 18.693502 116.464266 3.222901 -8.283009 8.794724 1.458500 -7.633000 -21.604700 10.791846 8.122169 -38.718795 -6.848218 -15.775660 46.326445 11.156402 -24.442474 -1.290200 -0.344900 -3.773400 10.440100 1.391021 -6.136662 -2.161056 -6.163875 -3.833136 -0.028038 1.417570 3.747545 -3.453822 -0.636000 1.691100 -7.022400 -27.690096 -55.802394 27.001277 59.475544 -47.708798 -40.656419 -0.859665 -4.500540 -48.516269 -7.125000 0.000000 0.000000 80.411227 7.080901 48.746068 -93.010693 57.901073 -66.226332 1.881827 -0.604521 2.331568 7.125000 0.000000 0.000000 
6.817076 17.818146 9.258895 0.762419 -40.750402 11.314894 -2.472915 2.963566 -72.245286 28.711198 18.827172 116.034197 3.129641 -7.906536 8.685398 1.450600 -7.613200 -21.545200 10.841408 8.439224 -38.655709 -7.165990 -16.011718 47.590968 11.009024 -24.219852 -2.418538 -0.330700 -3.695900 10.222700 1.376524 -6.118237 -2.146490 -5.991320 -3.847029 -0.115296 1.449501 3.692514 -3.591010 -0.615000 1.657000 -7.087000 -24.159315 -56.019134 22.996654 58.443110 -47.620443 -40.157593 -0.818898 -4.673744 -48.987924 -7.125000 0.000000 0.000000 80.135726 8.525533 48.454863 -94.847890 57.656362 -68.015055 1.881796 -0.531826 2.058078 7.125000 0.000000 0.000000 
